<svg fill="none" height="64" viewBox="0 0 64 64" width="64" xmlns="http://www.w3.org/2000/svg"><path d="m11 13c0-1.1046.8954-2 2-2h38c1.1046 0 2 .8954 2 2v38c0 1.1046-.8954 2-2 2h-38c-1.1046 0-2-.8954-2-2z" fill="#fff"/><g fill="#000"><path d="m13 10h39.9979c1.6555 0 3.0021 1.3418 3.0021 3v38c0 1.6569-1.3431 3-3 3h-28c-.5523 0-1-.4477-1-1v-11h8v10h10v-10h10v-10h-10v-10h10v-9c0-.5509-.4484-1-1.0021-1h-8.9979v10h-10v-10h-10v10h-10v1c0 .5523-.4477 1-1 1s-1-.4477-1-1v-10c0-1.6569 1.3431-3 3-3z"/><path d="m32 32v10h10v-10z"/><path d="m32 32h-10v-10h10z"/><path d="m19.1822 39.7059c-.176.1937-.4298.2941-.6915.2941h-8.9814c-.2617 0-.51546-.1004-.69146-.2941-1.12947-1.243-1.81784-2.8941-1.81784-4.7059 0-3.866 3.134-7 7-7s7 3.134 7 7c0 1.8118-.6884 3.4629-1.8178 4.7059z"/><path d="m8 43c0-.5523.44771-1 1-1h10c.5523 0 1 .4477 1 1s-.4477 1-1 1h-1c0 6.2757 2 10 2 10h1c.5523 0 1 .4477 1 1s-.4477 1-1 1h-14c-.55228 0-1-.4477-1-1s.44772-1 1-1h1s1.5638-3.1276 1.92582-8h1.07418c.5523 0 1-.4477 1-1s-.4477-1-1-1h-2c-.55229 0-1-.4477-1-1z"/></g></svg>